<svg width="25" height="25" viewBox="0 0 25 25" fill="none" xmlns="http://www.w3.org/2000/svg">
<path d="M24.8875 19.9264L24.7631 19.5515C24.4684 18.6755 23.5024 17.7619 22.615 17.5212L19.3305 16.6239C18.4398 16.3816 17.1692 16.7075 16.5176 17.3591L15.3289 18.5478C11.0088 17.3805 7.62127 13.9928 6.45551 9.6736L7.64427 8.48484C8.29594 7.83317 8.62173 6.56429 8.37941 5.6736L7.48379 2.38751C7.24147 1.49844 6.3262 0.532461 5.4519 0.240995L5.07697 0.114935C4.201 -0.176531 2.95173 0.118236 2.3001 0.769857L0.521965 2.54962C0.204302 2.86561 0.00127589 3.7694 0.00127589 3.7727C-0.0609155 9.41813 2.15272 14.8572 6.14607 18.8506C10.1296 22.8342 15.5483 25.0446 21.1774 24.9971C21.2068 24.9971 22.1368 24.7973 22.4545 24.4813L24.2326 22.7031C24.8842 22.0516 25.1789 20.8024 24.8875 19.9264Z" fill="#FFDE00"/>
</svg>
