<svg width="19" height="18" viewBox="0 0 19 18" fill="none" xmlns="http://www.w3.org/2000/svg">
<path fill-rule="evenodd" clip-rule="evenodd" d="M12.2836 13.5646C11.01 14.4641 14.9603 10.5885 13.8359 12.0622C13.8657 12.0622 13.816 12.1388 13.6369 12.3493C13.6369 12.3493 16.6319 15.2105 18.1045 16.6747C18.612 17.2105 17.6966 18.2632 17.0697 17.7082C15.7364 16.4641 12.5821 13.3732 12.5821 13.3732L12.2836 13.5646Z" fill="#0062B6"/>
<path d="M7.88563 15.0192C9.81597 15.0001 11.7264 14.2345 13.0996 12.9235C14.7314 11.3733 15.5672 9.07661 15.2787 6.8948C14.7811 3.1436 11.5672 0.598145 7.83588 0.598145C5.00005 0.598145 2.25379 2.30149 1.03986 4.77039C0.114482 6.66513 0.114482 8.94264 1.03986 10.8469C2.24384 13.2967 4.9503 15.0001 7.78612 15.0192C7.81597 15.0192 7.84583 15.0192 7.88563 15.0192ZM7.79607 13.8135C4.9105 13.7847 2.22393 11.6412 1.69657 8.89479C1.31846 6.96178 2.03488 4.86609 3.51747 3.4881C5.23886 1.88044 7.95528 1.34456 10.214 2.25365C12.2339 3.06704 13.7463 4.96178 14.0349 7.0479C14.2737 8.83738 13.607 10.7034 12.2936 11.9953C11.1493 13.1245 9.53737 13.8039 7.87568 13.8135C7.84582 13.8135 7.81597 13.8135 7.79607 13.8135Z" fill="#0062B6"/>
</svg>
