<svg width="47" height="47" viewBox="0 0 47 47" fill="none" xmlns="http://www.w3.org/2000/svg">
<path d="M5.87512 7.34391V1.46876C5.87512 0.656841 6.53196 0 7.34408 0C8.1558 0 8.81264 0.656841 8.81264 1.46876V7.34391C8.81264 8.15564 8.1558 8.81248 7.34408 8.81248C6.53196 8.81257 5.87512 8.15564 5.87512 7.34391ZM30.8441 8.81257C31.6557 8.81257 32.3129 8.15573 32.3129 7.344V1.46876C32.3129 0.656841 31.6557 0 30.8441 0C30.0322 0 29.3749 0.656841 29.3749 1.46876V7.34391C29.3749 8.15564 30.0322 8.81257 30.8441 8.81257ZM47 35.2497C47 41.7393 41.7391 47.0001 35.25 47.0001C28.7614 47.0001 23.5001 41.7393 23.5001 35.2497C23.5001 28.7611 28.7613 23.5 35.25 23.5C41.7391 23.5 47 28.761 47 35.2497ZM44.0629 35.2497C44.0629 30.3909 40.1098 26.4373 35.2501 26.4373C30.3908 26.4373 26.4377 30.3908 26.4377 35.2497C26.4377 40.1095 30.3908 44.0625 35.2501 44.0625C40.1098 44.0625 44.0629 40.1095 44.0629 35.2497ZM11.7503 17.625H5.87512V23.5H11.7503V17.625ZM5.87512 32.3126H11.7503V26.4373H5.87512V32.3126ZM14.6876 23.5H20.5628V17.625H14.6876V23.5ZM14.6876 32.3126H20.5628V26.4373H14.6876V32.3126ZM2.9378 34.9577V14.6874H35.2501V20.5626H38.1877V9.1053C38.1877 7.32095 36.7646 5.87495 35.0064 5.87495H33.7814V7.344C33.7814 8.96175 32.4644 10.2814 30.8442 10.2814C29.2236 10.2814 27.9067 8.96175 27.9067 7.344V5.87495H10.2813V7.344C10.2813 8.96175 8.96462 10.2814 7.34417 10.2814C5.72334 10.2814 4.40656 8.96175 4.40656 7.344V5.87495H3.18296C1.42468 5.87495 0.000183105 7.32095 0.000183105 9.1053V34.9578C0.000183105 36.7362 1.42468 38.1878 3.18296 38.1878H20.5628V35.2498H3.18296C3.04987 35.2497 2.9378 35.1123 2.9378 34.9577ZM29.3749 23.5V17.625H23.5002V23.5H29.3749ZM39.6564 35.2497H35.25V30.8433C35.25 30.0319 34.5932 29.375 33.7813 29.375C32.9693 29.375 32.3129 30.0319 32.3129 30.8433V36.719C32.3129 37.5305 32.9693 38.1877 33.7813 38.1877H39.6564C40.4683 38.1877 41.1251 37.5305 41.1251 36.719C41.1251 35.907 40.4683 35.2497 39.6564 35.2497Z" fill="white"/>
</svg>
