<svg width="27" height="27" viewBox="0 0 27 27" fill="none" xmlns="http://www.w3.org/2000/svg">
<path fill-rule="evenodd" clip-rule="evenodd" d="M27 13.5C27 20.9813 20.9813 27 13.5 27C6.01875 27 0 20.9813 0 13.5C0 6.01875 6.01875 0 13.5 0C20.9813 0 27 6.01875 27 13.5ZM9.05625 12.2625C7.70625 12.825 6.3 13.4438 5.0625 14.175C4.3875 14.6813 5.2875 15.0188 6.13125 15.3C6.24375 15.3563 6.4125 15.4125 6.525 15.4688C6.6375 15.525 6.75 15.525 6.8625 15.5813C7.7625 15.8625 8.83125 16.2 9.675 15.6937C11.1375 14.85 12.5438 13.8938 13.8938 12.8812C14.3438 12.5437 14.7937 12.2625 15.2438 11.925L15.3 11.8688C15.6938 11.6438 16.5375 11.025 16.2563 11.8125C15.4688 12.6562 14.6813 13.3875 13.8375 14.1188C13.275 14.625 12.7125 15.1312 12.2063 15.6375C11.7563 16.0312 11.25 16.8188 11.7562 17.325C12.9937 18.1687 14.2312 19.0125 15.4688 19.8562C15.8625 20.1375 16.2563 20.4188 16.65 20.6438C17.325 21.2063 18.3937 20.7563 18.5625 19.9125C18.6187 19.5188 18.675 19.125 18.7875 18.7312C19.1813 16.5938 19.5187 14.4 19.8562 12.2625C19.9125 11.925 19.9688 11.5875 20.025 11.25C20.1375 10.4062 20.25 9.61875 20.3062 8.775C20.1937 7.93125 19.1812 8.15625 18.6187 8.325C15.75 9.39375 12.8812 10.575 10.0687 11.8125C9.675 11.9812 9.39375 12.0938 9.05625 12.2625Z" fill="white"/>
</svg>
