<svg width="24" height="24" viewBox="0 0 24 24" fill="none" xmlns="http://www.w3.org/2000/svg">
<path d="M12 22.875C5.9939 22.875 1.125 18.0061 1.125 12C1.125 5.9939 5.9939 1.125 12 1.125C18.0061 1.125 22.875 5.9939 22.875 12C22.875 18.0061 18.0061 22.875 12 22.875Z" fill="#FFDE00"/>
<path d="M8.2875 16.8377C8.56875 16.8377 8.83125 16.7252 9.01875 16.5377L12.8062 12.7314C13.0125 12.5252 13.125 12.2627 13.125 11.9814V7.68765C13.1437 7.1439 12.7312 6.67515 12.1875 6.60015C11.625 6.5439 11.1187 6.97515 11.0625 7.53765C11.0625 7.57515 11.0625 7.5939 11.0625 7.6314V11.5689L7.55625 15.0752C7.1625 15.4689 7.1625 16.1252 7.55625 16.5377C7.74375 16.7252 8.00625 16.8377 8.2875 16.8377Z" fill="#1F191A"/>
</svg>
