<svg width="27" height="27" viewBox="0 0 27 27" fill="none" xmlns="http://www.w3.org/2000/svg">
<path fill-rule="evenodd" clip-rule="evenodd" d="M0 13.5C0 6.01875 6.01875 0 13.5 0C20.9813 0 27 6.01875 27 13.5C27 20.9813 20.9813 27 13.5 27C6.01875 27 0 20.9813 0 13.5ZM14.2312 17.9438C14.2312 17.9438 14.5125 17.8875 14.625 17.775C14.7375 17.6625 14.7375 17.3813 14.7375 17.3813C14.7375 17.3813 14.7375 16.2563 15.2438 16.0875C15.75 15.9187 16.425 17.1562 17.1562 17.6625C17.7188 18.0562 18.1125 17.9438 18.1125 17.9438H20.025C20.025 17.9438 21.0375 17.8875 20.5312 17.1C20.475 17.0437 20.25 16.5375 19.125 15.4688C17.9438 14.3438 18.0562 14.5688 19.5188 12.6562C20.4188 11.475 20.7563 10.8 20.6438 10.4625C20.5312 10.1813 19.9125 10.2375 19.9125 10.2375H17.775C17.775 10.2375 17.6063 10.2375 17.4937 10.2937C17.3813 10.35 17.325 10.5188 17.325 10.5188C17.325 10.5188 16.9875 11.4187 16.5375 12.15C15.5813 13.7812 15.1875 13.8375 15.0188 13.725C14.625 13.5 14.7375 12.7688 14.7375 12.3187C14.7375 10.7437 14.9625 10.125 14.2875 9.95625C14.0625 9.9 13.8938 9.84375 13.275 9.84375C12.4875 9.84375 11.8687 9.84375 11.475 10.0125C11.25 10.125 11.025 10.4062 11.1375 10.4062C11.3062 10.4062 11.5875 10.5188 11.7562 10.7438C11.9812 11.025 11.9812 11.7 11.9812 11.7C11.9812 11.7 12.0938 13.5562 11.7 13.7812C11.4187 13.95 11.025 13.6125 10.125 12.15C9.675 11.4187 9.3375 10.575 9.3375 10.575C9.3375 10.575 9.28125 10.4062 9.16875 10.35C9.05625 10.2375 8.83125 10.2375 8.83125 10.2375H6.75C6.75 10.2375 6.46875 10.2375 6.3 10.35C6.1875 10.4625 6.3 10.6875 6.3 10.6875C6.3 10.6875 7.93125 14.4 9.73125 16.2563C11.4187 17.9438 13.275 17.8313 13.275 17.8313H14.2312V17.9438Z" fill="white"/>
</svg>
