<svg width="239" height="52" viewBox="0 0 239 52" fill="none" xmlns="http://www.w3.org/2000/svg">
<path d="M0 50.9474V0H19.0259C23.5152 0 26.9356 1.26316 29.5009 3.57895C32.0662 5.89474 33.3488 9.05263 33.3488 12.6316C33.3488 18.5263 30.356 22.3158 24.5841 24.4211V24.6316C27.5769 25.2632 29.9284 26.9474 31.8524 29.2632C33.7764 31.5789 34.6315 34.3158 34.6315 37.4737C34.6315 46.5263 28.432 51.1579 15.8193 51.1579H0V50.9474ZM5.77191 26.5263V46.1053H16.4606C24.7979 46.1053 29.0733 42.9474 29.0733 36.8421C29.0733 33.6842 27.7907 31.1579 25.4392 29.2632C23.0877 27.3684 19.6673 26.5263 15.6055 26.5263H5.77191ZM5.77191 4.63158V21.6842H15.8193C19.881 21.6842 22.8739 20.8421 25.0116 18.9474C26.9356 17.4737 27.7907 15.3684 27.7907 13.0526C27.7907 7.36842 24.5841 4.63158 17.9571 4.63158H5.77191ZM69.4767 41.0526L73.5385 43.1579C72.042 45.8947 70.3318 47.7895 68.6216 49.0526C66.0563 50.7368 62.8497 51.7895 59.2156 51.7895C54.7263 51.7895 50.8784 50.3158 48.0993 47.3684C44.6789 44 43.1825 39.1579 43.1825 32.8421C43.1825 26.9474 44.4651 22.3158 47.2442 18.9474C50.0233 15.5789 53.6574 13.8947 58.3605 13.8947C62.4222 13.8947 65.8426 15.1579 68.4079 17.8947C71.1869 20.8421 72.4696 25.0526 72.4696 30.5263V33.8947H48.0993C48.0993 37.8947 49.1682 41.2632 51.3059 43.7895C53.4436 46.3158 56.0089 47.5789 59.2156 47.5789C63.7048 47.1579 67.1252 45.0526 69.4767 41.0526ZM48.0993 29.0526H67.1252C67.1252 25.6842 66.2701 22.9474 64.7737 20.8421C63.2773 18.7368 60.9258 17.6842 58.3605 17.6842C55.3676 17.6842 53.0161 18.7368 51.3059 20.6316C49.3819 22.9474 48.5268 25.6842 48.0993 29.0526ZM80.8068 50.9474V14.1053H85.9374V21.4737H86.1512C87.6476 18.7368 89.3578 16.8421 90.8542 15.7895C92.7782 14.5263 95.3435 13.6842 98.1225 13.6842V18.7368C95.1297 18.7368 92.5644 19.7895 90.6404 21.8947C88.9302 23.7895 87.22 26.5263 85.9374 30.5263V50.9474H80.8068ZM101.543 44.6316L105.605 41.6842C108.384 45.4737 111.804 47.3684 116.293 47.3684C118.859 47.3684 120.996 46.7368 122.279 45.4737C123.562 44.4211 124.203 42.9474 124.203 41.2632C124.203 38.7368 122.279 36.8421 118.431 35.5789C115.011 34.3158 111.377 33.2632 107.956 32C104.108 30.1053 102.398 27.3684 102.612 23.5789C102.612 20.4211 103.894 17.8947 106.032 16.2105C108.17 14.5263 111.163 13.6842 114.797 13.6842C117.148 13.6842 119.714 14.3158 122.065 15.5789C124.417 16.8421 126.341 18.3158 127.623 20.2105L123.989 23.3684C121.21 20 118.004 18.3158 114.369 18.3158C109.88 18.3158 107.742 20.2105 107.742 23.7895C107.742 25.8947 109.666 27.5789 113.301 28.8421C119.928 30.9474 123.348 32.2105 123.775 32.4211C127.41 34.5263 129.334 37.4737 129.334 41.2632C129.334 44.6316 128.051 47.3684 125.272 49.2632C122.92 50.9474 119.928 52 116.293 52C109.88 51.5789 104.963 49.2632 101.543 44.6316ZM137.885 0H143.015V19.1579H143.229C146.649 15.3684 150.284 13.4737 154.345 13.4737C157.338 13.4737 159.903 14.3158 161.827 15.7895C163.965 17.6842 165.034 20.4211 165.034 24.2105V50.9474H159.903V24.4211C159.903 20 157.979 17.8947 153.918 17.8947C150.284 17.8947 146.863 19.7895 143.229 23.3684V50.7368H138.098L137.885 0ZM177.433 50.9474V0H182.564V32.8421L197.741 14.1053H203.941L193.038 27.7895L205.437 50.9474H199.238L189.404 32.2105L182.564 39.7895V50.9474H177.433ZM215.912 23.5789L211.423 21.2632C214.416 16 218.905 13.4737 225.318 13.4737C228.953 13.4737 231.945 14.3158 234.083 16C236.862 17.8947 238.145 20.8421 238.145 24.6316V43.1579C238.145 46.3158 238.359 48.8421 239 51.1579H233.656L233.014 46.1053C229.38 49.8947 225.318 52 220.615 52C217.623 52 215.057 51.1579 213.133 49.4737C210.996 47.5789 209.927 45.0526 209.927 41.8947C209.927 37.8947 211.637 34.7368 215.057 32.4211C218.478 30.1053 224.463 28.2105 232.587 26.9474V24.6316C232.587 20.2105 230.021 17.8947 224.891 17.8947C220.615 17.8947 217.409 19.7895 215.912 23.5789ZM233.014 41.0526V30.9474C221.257 33.0526 215.485 36.4211 215.485 41.4737C215.485 43.1579 216.126 44.4211 217.409 45.4737C218.691 46.5263 220.188 47.1579 221.684 47.1579C223.394 47.1579 225.532 46.5263 227.67 45.4737C229.594 44.4211 231.518 42.9474 233.014 41.0526Z" fill="#1D1D1B"/>
</svg>
